<?xml version="1.0" standalone="no"?>
<!DOCTYPE svg PUBLIC "-//W3C//DTD SVG 20010904//EN"
 "http://www.w3.org/TR/2001/REC-SVG-20010904/DTD/svg10.dtd">
<svg version="1.0" xmlns="http://www.w3.org/2000/svg"
 width="500.000000pt" height="500.000000pt" viewBox="0 0 500.000000 500.000000"
 preserveAspectRatio="xMidYMid meet">

<g transform="translate(0.000000,500.000000) scale(0.100000,-0.100000)"
fill="#000000" stroke="none">
<path d="M2196 4750 c-101 -21 -246 -87 -329 -148 -119 -88 -207 -196 -278
-338 l-46 -93 -84 -42 c-200 -101 -339 -324 -339 -544 0 -90 14 -167 44 -242
23 -54 26 -58 61 -61 l36 -3 -26 50 c-38 75 -55 155 -55 254 0 213 129 413
320 499 36 16 71 33 79 37 8 4 27 38 42 75 101 250 317 433 586 497 74 18 107
20 213 16 194 -9 330 -57 474 -167 l67 -51 76 26 c160 56 352 27 497 -73 80
-55 164 -157 197 -241 13 -31 28 -59 33 -63 6 -4 36 -5 67 -1 74 7 184 -17
279 -63 122 -58 237 -193 280 -327 7 -21 10 -40 8 -43 -3 -2 -40 5 -83 16 -43
11 -104 20 -136 20 l-58 0 -38 73 c-124 238 -422 361 -676 281 -57 -18 -57
-18 -88 5 -168 124 -311 173 -514 173 -232 1 -434 -87 -597 -261 -76 -82 -137
-174 -165 -252 -14 -40 -23 -48 -60 -62 -65 -24 -146 -82 -203 -143 -47 -53
-122 -188 -136 -246 -6 -26 -4 -28 24 -28 26 0 32 5 43 38 47 147 161 269 307
328 52 21 56 25 80 85 73 184 212 330 394 413 109 50 195 68 323 68 178 -1
319 -49 462 -156 l62 -47 67 21 c146 45 266 36 401 -31 104 -52 186 -135 238
-244 l36 -75 68 0 c155 0 284 -51 385 -152 184 -184 205 -470 49 -676 -82
-107 -196 -178 -327 -203 -27 -5 -179 -9 -337 -9 l-289 0 0 -31 0 -31 323 4
c318 3 323 4 394 30 104 37 159 72 234 148 103 104 169 260 169 400 0 71 -27
178 -63 255 -35 73 -119 173 -181 216 -30 20 -37 33 -47 79 -20 102 -83 214
-167 300 -117 118 -252 178 -414 185 l-81 3 -28 59 c-78 161 -229 283 -408
329 -83 21 -252 16 -332 -11 l-56 -18 -66 47 c-78 56 -208 117 -297 141 -102
27 -304 29 -414 5z"/>
<path d="M114 3210 c-57 -23 -54 42 -54 -1141 0 -1083 0 -1086 21 -1113 l20
-26 691 -2 692 -3 8 -30 c15 -49 14 -206 0 -248 -8 -21 -25 -51 -39 -67 l-25
-30 -168 0 -168 0 -26 -31 c-14 -17 -29 -42 -32 -55 -10 -39 2 -100 26 -134
l21 -30 728 0 728 0 26 26 c47 46 44 126 -5 197 l-19 27 -163 0 -162 0 -27 28
c-45 47 -69 116 -69 197 0 40 6 91 12 114 l11 41 374 0 375 0 0 25 0 25 -1372
0 c-755 0 -1379 4 -1386 8 -10 7 -12 231 -10 1088 l3 1079 1679 3 c1233 1
1682 -1 1692 -9 11 -9 14 -73 14 -320 l0 -309 31 0 30 0 -3 325 c-3 322 -3
325 -26 347 l-23 23 -1692 2 c-943 1 -1701 -2 -1713 -7z m1956 -2315 c-3 -16
-5 -75 -5 -130 0 -114 19 -167 85 -236 l37 -39 165 0 166 0 11 -31 c14 -41 14
-72 -1 -87 -17 -17 -1409 -17 -1426 0 -15 15 -16 72 -2 99 10 18 23 19 175 19
l164 0 36 32 c70 61 80 94 80 261 l0 147 260 -2 260 -3 -5 -30z"/>
<path d="M301 3044 c-21 -27 -21 -31 -21 -976 l0 -949 25 -24 24 -25 1281 0
1280 0 0 30 0 30 -1275 0 -1275 0 2 943 3 942 1450 3 c798 1 1460 0 1473 -3
l22 -5 0 -245 0 -245 31 0 30 0 -3 254 c-3 233 -5 256 -22 275 l-19 21 -1493
0 -1493 0 -20 -26z"/>
<path d="M2937 2473 c-4 -3 -7 -405 -7 -892 l0 -886 -49 -21 c-70 -31 -104
-85 -109 -174 -2 -38 1 -83 7 -102 15 -46 75 -106 120 -118 24 -8 340 -10 987
-8 l951 3 36 27 c68 53 82 83 82 179 0 76 -3 90 -27 126 -18 27 -44 49 -77 64
l-50 24 -3 890 -3 890 -926 3 c-509 1 -929 -1 -932 -5z m1803 -913 l0 -860
-66 0 -65 0 20 26 c19 24 21 40 21 156 0 137 -10 177 -51 198 -19 11 -19 12
10 39 40 37 43 57 39 206 l-3 127 -32 28 -32 29 34 34 35 35 0 132 c0 138 -5
161 -47 196 l-26 22 22 11 c41 22 51 61 51 193 0 137 -7 160 -59 195 l-35 23
-704 -2 -704 -3 -34 -37 -34 -38 0 -141 0 -142 33 -31 33 -31 -33 -33 -33 -33
0 -139 0 -139 31 -36 31 -35 -31 -35 -31 -36 0 -141 0 -141 33 -31 33 -31 -33
-33 -33 -33 0 -138 c0 -125 2 -141 21 -165 l20 -26 -65 0 -66 0 0 860 0 860
875 0 875 0 0 -860z m-169 711 c20 -16 23 -29 27 -114 5 -112 -8 -164 -45
-178 -13 -5 -70 -9 -126 -9 -89 0 -99 2 -82 14 16 12 17 16 6 30 -12 14 -45
16 -256 16 -211 0 -244 -2 -256 -16 -11 -14 -10 -18 6 -30 16 -12 -28 -14
-322 -14 -420 0 -387 -13 -391 154 -4 112 -3 116 22 141 l25 25 684 0 c654 0
686 -1 708 -19z m1 -419 c21 -21 23 -31 23 -136 0 -155 -1 -156 -148 -156 -95
0 -108 2 -97 15 26 31 1 35 -255 35 -256 0 -281 -4 -255 -35 11 -13 -31 -15
-328 -15 l-341 0 -20 26 c-18 23 -21 41 -21 125 0 109 11 144 49 158 16 6 285
9 698 8 l672 -2 23 -23z m-1 -411 c23 -18 24 -25 24 -135 0 -107 -2 -117 -23
-138 -20 -21 -34 -23 -129 -26 -97 -4 -106 -2 -94 12 11 13 11 19 1 31 -10 13
-52 15 -255 15 -203 0 -245 -2 -255 -15 -10 -12 -10 -18 0 -30 11 -13 -24 -15
-307 -15 -198 0 -332 4 -350 10 -43 15 -53 47 -53 161 0 93 2 102 25 124 l24
25 684 0 c659 0 686 -1 708 -19z m1 -419 c21 -21 23 -31 23 -138 0 -152 -2
-154 -152 -154 -91 0 -104 2 -93 15 26 31 1 35 -255 35 -256 0 -281 -4 -255
-35 11 -13 -31 -15 -324 -15 l-337 0 -24 25 c-23 22 -25 31 -25 124 0 111 11
146 49 160 16 6 285 9 698 8 l672 -2 23 -23z m241 -396 c18 -7 45 -28 60 -45
23 -28 27 -42 27 -94 0 -70 -21 -114 -67 -144 -26 -17 -78 -18 -968 -18 -890
0 -942 1 -968 18 -46 30 -67 74 -67 144 0 52 4 66 27 94 52 61 4 58 1006 59
753 0 923 -2 950 -14z"/>
<path d="M3835 2270 c-4 -6 -1 -17 5 -25 10 -12 55 -15 255 -15 200 0 245 3
255 15 26 31 1 35 -255 35 -166 0 -256 -4 -260 -10z"/>
<path d="M3840 2185 c-26 -31 -1 -35 255 -35 256 0 281 4 255 35 -10 12 -55
15 -255 15 -200 0 -245 -3 -255 -15z"/>
<path d="M4436 2168 c-9 -12 -16 -30 -16 -40 0 -24 35 -58 60 -58 27 0 60 35
60 63 0 53 -75 77 -104 35z"/>
<path d="M3835 2100 c-4 -6 -1 -17 5 -25 10 -12 55 -15 255 -15 200 0 245 3
255 15 26 31 1 35 -255 35 -166 0 -256 -4 -260 -10z"/>
<path d="M3174 2056 c-10 -26 4 -48 28 -44 17 2 23 10 23 28 0 18 -6 26 -23
28 -13 2 -25 -3 -28 -12z"/>
<path d="M3274 2055 c-9 -23 3 -45 24 -45 29 0 48 26 32 45 -7 8 -21 15 -32
15 -10 0 -21 -7 -24 -15z"/>
<path d="M3384 2056 c-10 -26 4 -48 28 -44 17 2 23 10 23 28 0 18 -6 26 -23
28 -13 2 -25 -3 -28 -12z"/>
<path d="M3840 1855 c-26 -31 -1 -35 255 -35 256 0 281 4 255 35 -10 12 -55
15 -255 15 -200 0 -245 -3 -255 -15z"/>
<path d="M3835 1770 c-4 -6 -1 -17 5 -25 10 -12 55 -15 255 -15 200 0 245 3
255 15 26 31 1 35 -255 35 -166 0 -256 -4 -260 -10z"/>
<path d="M4453 1770 c-52 -21 -31 -110 26 -110 55 0 80 61 41 100 -22 22 -33
23 -67 10z"/>
<path d="M3840 1685 c-26 -31 -1 -35 255 -35 256 0 281 4 255 35 -10 12 -55
15 -255 15 -200 0 -245 -3 -255 -15z"/>
<path d="M3171 1641 c-13 -24 9 -57 33 -48 23 9 31 34 16 52 -17 20 -37 19
-49 -4z"/>
<path d="M3280 1645 c-15 -18 -7 -43 16 -52 24 -9 46 24 33 48 -12 23 -32 24
-49 4z"/>
<path d="M3387 1654 c-13 -13 -7 -55 9 -61 24 -9 51 23 38 45 -12 19 -36 27
-47 16z"/>
<path d="M3835 1440 c-4 -6 -1 -17 5 -25 10 -12 55 -15 255 -15 200 0 245 3
255 15 26 31 1 35 -255 35 -166 0 -256 -4 -260 -10z"/>
<path d="M3840 1355 c-26 -31 -1 -35 255 -35 256 0 281 4 255 35 -10 12 -55
15 -255 15 -200 0 -245 -3 -255 -15z"/>
<path d="M4434 1335 c-21 -32 -12 -68 21 -83 60 -27 115 48 67 91 -28 25 -69
21 -88 -8z"/>
<path d="M3835 1270 c-4 -6 -1 -17 5 -25 10 -12 55 -15 255 -15 200 0 245 3
255 15 26 31 1 35 -255 35 -166 0 -256 -4 -260 -10z"/>
<path d="M3172 1213 c2 -22 8 -28 28 -28 20 0 25 5 25 25 0 20 -6 26 -28 28
-26 3 -28 1 -25 -25z"/>
<path d="M3274 1225 c-9 -23 3 -45 24 -45 25 0 44 23 36 44 -8 20 -53 21 -60
1z"/>
<path d="M3382 1213 c2 -22 8 -28 28 -28 20 0 25 5 25 25 0 20 -6 26 -28 28
-26 3 -28 1 -25 -25z"/>
<path d="M3840 1025 c-26 -31 -1 -35 255 -35 256 0 281 4 255 35 -10 12 -55
15 -255 15 -200 0 -245 -3 -255 -15z"/>
<path d="M3835 940 c-4 -6 -1 -17 5 -25 10 -12 55 -15 255 -15 200 0 245 3
255 15 26 31 1 35 -255 35 -166 0 -256 -4 -260 -10z"/>
<path d="M4440 930 c-24 -24 -25 -48 -4 -78 30 -43 104 -17 104 36 0 28 -34
62 -60 62 -11 0 -29 -9 -40 -20z"/>
<path d="M3843 859 c-6 -6 -9 -18 -6 -25 8 -21 508 -21 516 0 13 32 -15 36
-258 36 -165 0 -245 -4 -252 -11z"/>
<path d="M3170 811 c-7 -15 -6 -24 6 -36 19 -18 33 -16 48 7 7 12 6 21 -3 32
-18 22 -38 20 -51 -3z"/>
<path d="M3279 814 c-9 -11 -10 -20 -3 -32 15 -23 29 -25 48 -7 12 12 13 21 6
36 -13 23 -33 25 -51 3z"/>
<path d="M3387 824 c-13 -14 -7 -52 10 -58 25 -10 51 20 37 42 -12 19 -36 27
-47 16z"/>
</g>
</svg>
